<svg width="360" height="640" viewBox="0 0 360 640" fill="none" xmlns="http://www.w3.org/2000/svg">
<g clip-path="url(#clip0)">
<rect width="360" height="640" fill="#25252F"/>
<g opacity="0.4">
<path d="M-9.35 303.05C-20.15 292.4 -34.25 287 -48.35 287C-85.4 287 -103.85 314.3 -103.85 343.85C-103.85 371.45 -87.8 397.4 -48.35 397.4C-29.9 397.4 -16.85 390.35 -6.5 378.5V334.25H-51.5V351.95H-24.65V370.55C-32.9 377.15 -40.1 378.95 -48.35 378.95C-74.45 378.95 -84.5 361.1 -84.5 343.85C-84.5 322.25 -70.85 305.15 -48.35 305.15C-39.2 305.15 -28.7 308.9 -21.65 315.65L-9.35 303.05ZM26.5773 320.75V395H8.27734V320.75H26.5773ZM6.62734 300.2C6.62734 314.45 28.2273 314.45 28.2273 300.2C28.2273 285.95 6.62734 285.95 6.62734 300.2ZM78.9906 336.35C90.5406 336.35 100.441 345.05 100.441 357.95C100.441 371.3 90.5406 379.7 78.9906 379.7C67.2906 379.7 57.9906 370.85 57.9906 357.95C57.9906 344.6 67.2906 336.35 78.9906 336.35ZM101.641 290.15V331.1C97.2906 323.45 85.1406 319.25 77.3406 319.25C55.7406 319.25 39.6906 332.45 39.6906 357.95C39.6906 382.25 56.0406 396.65 77.7906 396.65C86.7906 396.65 95.9406 393.65 101.641 384.8L102.841 395H119.941V290.15H101.641ZM186.565 322.85C181.465 319.4 175.465 318.65 169.615 318.65C148.915 318.65 132.115 333.05 132.115 356.15C132.115 379.25 146.515 393.35 169.615 393.35C178.765 393.35 188.365 398 188.365 408.2C188.365 418.4 180.115 424.1 169.615 424.1C159.115 424.1 150.265 417.8 150.265 408.2H132.115C132.115 428.15 148.165 441.2 169.615 441.2C191.065 441.2 206.665 428.6 206.665 408.2C206.665 398.75 203.665 389.9 191.365 383.75C203.515 378.2 206.965 365.3 206.965 356.15C206.965 348.05 204.865 340.7 199.165 334.25L207.415 323.75L193.915 313.55L186.565 322.85ZM169.615 335.3C180.115 335.3 188.815 343.4 188.815 356.15C188.815 368.9 180.115 376.7 169.615 376.7C158.965 376.7 150.265 369.05 150.265 356.15C150.265 343.25 158.965 335.3 169.615 335.3ZM291.979 364.55C294.829 334.1 279.379 318.8 254.629 318.8C230.629 318.8 215.329 335 215.329 357.5C215.329 381.2 230.479 396.95 255.979 396.95C267.229 396.95 279.979 393.05 287.779 384.95L276.079 373.4C271.879 377.75 263.029 380.3 256.279 380.3C243.379 380.3 235.429 373.7 234.229 364.55H291.979ZM234.529 349.4C237.229 339.8 245.329 335 255.229 335C265.729 335 273.229 339.8 274.429 349.4H234.529ZM310.357 302.15V321.2H296.557V336.95H310.357V368.9C310.357 387.35 320.857 396.5 336.907 395.9C342.457 395.75 346.807 394.85 352.057 392.75L346.957 377.15C344.257 378.5 340.957 379.4 338.107 379.4C332.407 379.4 328.507 375.95 328.507 368.9V336.95H349.057V321.2H328.657V300.2L310.357 302.15Z" fill="#16171E"/>
<path d="M94.65 168.05C83.85 157.4 69.75 152 55.65 152C18.6 152 0.15 179.3 0.15 208.85C0.15 236.45 16.2 262.4 55.65 262.4C74.1 262.4 87.15 255.35 97.5 243.5V199.25H52.5V216.95H79.35V235.55C71.1 242.15 63.9 243.95 55.65 243.95C29.55 243.95 19.5 226.1 19.5 208.85C19.5 187.25 33.15 170.15 55.65 170.15C64.8 170.15 75.3 173.9 82.35 180.65L94.65 168.05ZM130.577 185.75V260H112.277V185.75H130.577ZM110.627 165.2C110.627 179.45 132.227 179.45 132.227 165.2C132.227 150.95 110.627 150.95 110.627 165.2ZM182.991 201.35C194.541 201.35 204.441 210.05 204.441 222.95C204.441 236.3 194.541 244.7 182.991 244.7C171.291 244.7 161.991 235.85 161.991 222.95C161.991 209.6 171.291 201.35 182.991 201.35ZM205.641 155.15V196.1C201.291 188.45 189.141 184.25 181.341 184.25C159.741 184.25 143.691 197.45 143.691 222.95C143.691 247.25 160.041 261.65 181.791 261.65C190.791 261.65 199.941 258.65 205.641 249.8L206.841 260H223.941V155.15H205.641ZM290.565 187.85C285.465 184.4 279.465 183.65 273.615 183.65C252.915 183.65 236.115 198.05 236.115 221.15C236.115 244.25 250.515 258.35 273.615 258.35C282.765 258.35 292.365 263 292.365 273.2C292.365 283.4 284.115 289.1 273.615 289.1C263.115 289.1 254.265 282.8 254.265 273.2H236.115C236.115 293.15 252.165 306.2 273.615 306.2C295.065 306.2 310.665 293.6 310.665 273.2C310.665 263.75 307.665 254.9 295.365 248.75C307.515 243.2 310.965 230.3 310.965 221.15C310.965 213.05 308.865 205.7 303.165 199.25L311.415 188.75L297.915 178.55L290.565 187.85ZM273.615 200.3C284.115 200.3 292.815 208.4 292.815 221.15C292.815 233.9 284.115 241.7 273.615 241.7C262.965 241.7 254.265 234.05 254.265 221.15C254.265 208.25 262.965 200.3 273.615 200.3ZM395.979 229.55C398.829 199.1 383.379 183.8 358.629 183.8C334.629 183.8 319.329 200 319.329 222.5C319.329 246.2 334.479 261.95 359.979 261.95C371.229 261.95 383.979 258.05 391.779 249.95L380.079 238.4C375.879 242.75 367.029 245.3 360.279 245.3C347.379 245.3 339.429 238.7 338.229 229.55H395.979ZM338.529 214.4C341.229 204.8 349.329 200 359.229 200C369.729 200 377.229 204.8 378.429 214.4H338.529ZM414.357 167.15V186.2H400.557V201.95H414.357V233.9C414.357 252.35 424.857 261.5 440.907 260.9C446.457 260.75 450.807 259.85 456.057 257.75L450.957 242.15C448.257 243.5 444.957 244.4 442.107 244.4C436.407 244.4 432.507 240.95 432.507 233.9V201.95H453.057V186.2H432.657V165.2L414.357 167.15Z" fill="#16171E"/>
<path d="M-9.35 13.05C-20.15 2.4 -34.25 -3 -48.35 -3C-85.4 -3 -103.85 24.3 -103.85 53.85C-103.85 81.45 -87.8 107.4 -48.35 107.4C-29.9 107.4 -16.85 100.35 -6.5 88.5V44.25H-51.5V61.95H-24.65V80.55C-32.9 87.15 -40.1 88.95 -48.35 88.95C-74.45 88.95 -84.5 71.1 -84.5 53.85C-84.5 32.25 -70.85 15.15 -48.35 15.15C-39.2 15.15 -28.7 18.9 -21.65 25.65L-9.35 13.05ZM26.5773 30.75V105H8.27734V30.75H26.5773ZM6.62734 10.2C6.62734 24.45 28.2273 24.45 28.2273 10.2C28.2273 -4.05001 6.62734 -4.05001 6.62734 10.2ZM78.9906 46.35C90.5406 46.35 100.441 55.05 100.441 67.95C100.441 81.3 90.5406 89.7 78.9906 89.7C67.2906 89.7 57.9906 80.85 57.9906 67.95C57.9906 54.6 67.2906 46.35 78.9906 46.35ZM101.641 0.149991V41.1C97.2906 33.45 85.1406 29.25 77.3406 29.25C55.7406 29.25 39.6906 42.45 39.6906 67.95C39.6906 92.25 56.0406 106.65 77.7906 106.65C86.7906 106.65 95.9406 103.65 101.641 94.8L102.841 105H119.941V0.149991H101.641ZM186.565 32.85C181.465 29.4 175.465 28.65 169.615 28.65C148.915 28.65 132.115 43.05 132.115 66.15C132.115 89.25 146.515 103.35 169.615 103.35C178.765 103.35 188.365 108 188.365 118.2C188.365 128.4 180.115 134.1 169.615 134.1C159.115 134.1 150.265 127.8 150.265 118.2H132.115C132.115 138.15 148.165 151.2 169.615 151.2C191.065 151.2 206.665 138.6 206.665 118.2C206.665 108.75 203.665 99.9 191.365 93.75C203.515 88.2 206.965 75.3 206.965 66.15C206.965 58.05 204.865 50.7 199.165 44.25L207.415 33.75L193.915 23.55L186.565 32.85ZM169.615 45.3C180.115 45.3 188.815 53.4 188.815 66.15C188.815 78.9 180.115 86.7 169.615 86.7C158.965 86.7 150.265 79.05 150.265 66.15C150.265 53.25 158.965 45.3 169.615 45.3ZM291.979 74.55C294.829 44.1 279.379 28.8 254.629 28.8C230.629 28.8 215.329 45 215.329 67.5C215.329 91.2 230.479 106.95 255.979 106.95C267.229 106.95 279.979 103.05 287.779 94.95L276.079 83.4C271.879 87.75 263.029 90.3 256.279 90.3C243.379 90.3 235.429 83.7 234.229 74.55H291.979ZM234.529 59.4C237.229 49.8 245.329 45 255.229 45C265.729 45 273.229 49.8 274.429 59.4H234.529ZM310.357 12.15V31.2H296.557V46.95H310.357V78.9C310.357 97.35 320.857 106.5 336.907 105.9C342.457 105.75 346.807 104.85 352.057 102.75L346.957 87.15C344.257 88.5 340.957 89.4 338.107 89.4C332.407 89.4 328.507 85.95 328.507 78.9V46.95H349.057V31.2H328.657V10.2L310.357 12.15Z" fill="#16171E"/>
<path d="M-9.35 600.05C-20.15 589.4 -34.25 584 -48.35 584C-85.4 584 -103.85 611.3 -103.85 640.85C-103.85 668.45 -87.8 694.4 -48.35 694.4C-29.9 694.4 -16.85 687.35 -6.5 675.5V631.25H-51.5V648.95H-24.65V667.55C-32.9 674.15 -40.1 675.95 -48.35 675.95C-74.45 675.95 -84.5 658.1 -84.5 640.85C-84.5 619.25 -70.85 602.15 -48.35 602.15C-39.2 602.15 -28.7 605.9 -21.65 612.65L-9.35 600.05ZM26.5773 617.75V692H8.27734V617.75H26.5773ZM6.62734 597.2C6.62734 611.45 28.2273 611.45 28.2273 597.2C28.2273 582.95 6.62734 582.95 6.62734 597.2ZM78.9906 633.35C90.5406 633.35 100.441 642.05 100.441 654.95C100.441 668.3 90.5406 676.7 78.9906 676.7C67.2906 676.7 57.9906 667.85 57.9906 654.95C57.9906 641.6 67.2906 633.35 78.9906 633.35ZM101.641 587.15V628.1C97.2906 620.45 85.1406 616.25 77.3406 616.25C55.7406 616.25 39.6906 629.45 39.6906 654.95C39.6906 679.25 56.0406 693.65 77.7906 693.65C86.7906 693.65 95.9406 690.65 101.641 681.8L102.841 692H119.941V587.15H101.641ZM186.565 619.85C181.465 616.4 175.465 615.65 169.615 615.65C148.915 615.65 132.115 630.05 132.115 653.15C132.115 676.25 146.515 690.35 169.615 690.35C178.765 690.35 188.365 695 188.365 705.2C188.365 715.4 180.115 721.1 169.615 721.1C159.115 721.1 150.265 714.8 150.265 705.2H132.115C132.115 725.15 148.165 738.2 169.615 738.2C191.065 738.2 206.665 725.6 206.665 705.2C206.665 695.75 203.665 686.9 191.365 680.75C203.515 675.2 206.965 662.3 206.965 653.15C206.965 645.05 204.865 637.7 199.165 631.25L207.415 620.75L193.915 610.55L186.565 619.85ZM169.615 632.3C180.115 632.3 188.815 640.4 188.815 653.15C188.815 665.9 180.115 673.7 169.615 673.7C158.965 673.7 150.265 666.05 150.265 653.15C150.265 640.25 158.965 632.3 169.615 632.3ZM291.979 661.55C294.829 631.1 279.379 615.8 254.629 615.8C230.629 615.8 215.329 632 215.329 654.5C215.329 678.2 230.479 693.95 255.979 693.95C267.229 693.95 279.979 690.05 287.779 681.95L276.079 670.4C271.879 674.75 263.029 677.3 256.279 677.3C243.379 677.3 235.429 670.7 234.229 661.55H291.979ZM234.529 646.4C237.229 636.8 245.329 632 255.229 632C265.729 632 273.229 636.8 274.429 646.4H234.529ZM310.357 599.15V618.2H296.557V633.95H310.357V665.9C310.357 684.35 320.857 693.5 336.907 692.9C342.457 692.75 346.807 691.85 352.057 689.75L346.957 674.15C344.257 675.5 340.957 676.4 338.107 676.4C332.407 676.4 328.507 672.95 328.507 665.9V633.95H349.057V618.2H328.657V597.2L310.357 599.15Z" fill="#16171E"/>
<path d="M96.65 459.05C85.85 448.4 71.75 443 57.65 443C20.6 443 2.15 470.3 2.15 499.85C2.15 527.45 18.2 553.4 57.65 553.4C76.1 553.4 89.15 546.35 99.5 534.5V490.25H54.5V507.95H81.35V526.55C73.1 533.15 65.9 534.95 57.65 534.95C31.55 534.95 21.5 517.1 21.5 499.85C21.5 478.25 35.15 461.15 57.65 461.15C66.8 461.15 77.3 464.9 84.35 471.65L96.65 459.05ZM132.577 476.75V551H114.277V476.75H132.577ZM112.627 456.2C112.627 470.45 134.227 470.45 134.227 456.2C134.227 441.95 112.627 441.95 112.627 456.2ZM184.991 492.35C196.541 492.35 206.441 501.05 206.441 513.95C206.441 527.3 196.541 535.7 184.991 535.7C173.291 535.7 163.991 526.85 163.991 513.95C163.991 500.6 173.291 492.35 184.991 492.35ZM207.641 446.15V487.1C203.291 479.45 191.141 475.25 183.341 475.25C161.741 475.25 145.691 488.45 145.691 513.95C145.691 538.25 162.041 552.65 183.791 552.65C192.791 552.65 201.941 549.65 207.641 540.8L208.841 551H225.941V446.15H207.641ZM292.565 478.85C287.465 475.4 281.465 474.65 275.615 474.65C254.915 474.65 238.115 489.05 238.115 512.15C238.115 535.25 252.515 549.35 275.615 549.35C284.765 549.35 294.365 554 294.365 564.2C294.365 574.4 286.115 580.1 275.615 580.1C265.115 580.1 256.265 573.8 256.265 564.2H238.115C238.115 584.15 254.165 597.2 275.615 597.2C297.065 597.2 312.665 584.6 312.665 564.2C312.665 554.75 309.665 545.9 297.365 539.75C309.515 534.2 312.965 521.3 312.965 512.15C312.965 504.05 310.865 496.7 305.165 490.25L313.415 479.75L299.915 469.55L292.565 478.85ZM275.615 491.3C286.115 491.3 294.815 499.4 294.815 512.15C294.815 524.9 286.115 532.7 275.615 532.7C264.965 532.7 256.265 525.05 256.265 512.15C256.265 499.25 264.965 491.3 275.615 491.3ZM397.979 520.55C400.829 490.1 385.379 474.8 360.629 474.8C336.629 474.8 321.329 491 321.329 513.5C321.329 537.2 336.479 552.95 361.979 552.95C373.229 552.95 385.979 549.05 393.779 540.95L382.079 529.4C377.879 533.75 369.029 536.3 362.279 536.3C349.379 536.3 341.429 529.7 340.229 520.55H397.979ZM340.529 505.4C343.229 495.8 351.329 491 361.229 491C371.729 491 379.229 495.8 380.429 505.4H340.529ZM416.357 458.15V477.2H402.557V492.95H416.357V524.9C416.357 543.35 426.857 552.5 442.907 551.9C448.457 551.75 452.807 550.85 458.057 548.75L452.957 533.15C450.257 534.5 446.957 535.4 444.107 535.4C438.407 535.4 434.507 531.95 434.507 524.9V492.95H455.057V477.2H434.657V456.2L416.357 458.15Z" fill="#16171E"/>
</g>
</g>
<defs>
<clipPath id="clip0">
<rect width="360" height="640" fill="white"/>
</clipPath>
</defs>
</svg>
